<svg width="18" height="16" viewBox="0 0 18 16" fill="none" xmlns="http://www.w3.org/2000/svg">
<path d="M17.4232 8.38859C17.346 8.38855 17.2697 8.37236 17.1992 8.34106L12.5026 6.2434C12.4065 6.20017 12.325 6.1301 12.2678 6.04163C12.2106 5.95316 12.1802 5.85006 12.1802 5.74471C12.1802 5.63935 12.2106 5.53625 12.2678 5.44778C12.325 5.35931 12.4065 5.28924 12.5026 5.24601L17.1992 3.15616C17.3316 3.0974 17.4819 3.09337 17.6173 3.14496C17.7527 3.19654 17.8622 3.29957 17.9219 3.43155C17.9804 3.56393 17.9841 3.71413 17.9322 3.84922C17.8802 3.98432 17.7767 4.09329 17.6445 4.15226L14.0664 5.74536L17.6452 7.34432C17.7596 7.39506 17.853 7.48357 17.9099 7.59502C17.9668 7.70646 17.9836 7.83408 17.9576 7.95646C17.9316 8.07885 17.8643 8.18858 17.767 8.26725C17.6697 8.34592 17.5483 8.38876 17.4232 8.38859Z" fill="#34302D"/>
<path d="M11.0222 15.9987C5.85876 15.9987 1.34444 12.5222 0.0462599 7.54363C0.0118628 7.40395 0.0338906 7.25634 0.10757 7.13278C0.18125 7.00922 0.300647 6.91967 0.439892 6.88354C0.579136 6.8474 0.727012 6.86758 0.85148 6.93971C0.975947 7.01184 1.06698 7.13011 1.10485 7.26889C2.28259 11.7695 6.35876 14.9089 11.0222 14.9076C11.097 14.9024 11.1721 14.9127 11.2427 14.9377C11.3134 14.9628 11.3782 15.0022 11.433 15.0533C11.4878 15.1045 11.5316 15.1664 11.5615 15.2352C11.5913 15.304 11.6068 15.3781 11.6068 15.4531C11.6068 15.5281 11.5913 15.6023 11.5615 15.6711C11.5316 15.7399 11.4878 15.8018 11.433 15.853C11.3782 15.9041 11.3134 15.9435 11.2427 15.9685C11.1721 15.9936 11.097 16.0039 11.0222 15.9987Z" fill="#34302D"/>
<path d="M9.13678 11.4668C8.99197 11.4668 8.85306 11.4094 8.75054 11.3071C8.64802 11.2048 8.59025 11.066 8.5899 10.9212V0.546875C8.5899 0.401835 8.64752 0.262735 8.75008 0.160176C8.85264 0.057617 8.99174 0 9.13678 0C9.28182 0 9.42092 0.057617 9.52348 0.160176C9.62604 0.262735 9.68366 0.401835 9.68366 0.546875V10.9212C9.68331 11.066 9.62554 11.2048 9.52302 11.3071C9.4205 11.4094 9.2816 11.4668 9.13678 11.4668Z" fill="#34302D"/>
</svg>
